<svg width="167" height="167" viewBox="0 0 167 167" fill="none" xmlns="http://www.w3.org/2000/svg">
<path d="M83.3333 0C129.357 0 166.667 37.3096 166.667 83.3333C166.667 129.357 129.357 166.667 83.3333 166.667C37.3096 166.667 0 129.357 0 83.3333C0 37.3096 37.3096 0 83.3333 0ZM83.3333 75C66.6667 75 52.7777 77.7775 41.6667 83.3333C41.6667 106.345 60.3215 125 83.3333 125C106.345 125 125 106.345 125 83.3333C113.889 77.7775 100 75 83.3333 75ZM54.1667 41.6667C44.566 41.6667 36.4822 48.1608 34.0682 56.9958L33.7491 58.3381H74.5842C72.6558 48.8264 64.2473 41.6667 54.1667 41.6667ZM112.5 41.6667C102.899 41.6667 94.8158 48.1608 92.4017 56.9958L92.0825 58.3381H132.917C130.989 48.8264 122.581 41.6667 112.5 41.6667Z" fill="#027AB9"/>
</svg>
